<svg width="538" height="159" viewBox="0 0 538 159" fill="none" xmlns="http://www.w3.org/2000/svg">
<g clip-path="url(#clip0_329_79)">
<path d="M518.074 158.972H19.9259C8.76741 158.972 0 150.23 0 139.104V19.8959C0 8.76977 8.76741 0.027832 19.9259 0.027832H518.074C529.233 0.027832 538 8.76977 538 19.8959V139.104C538 150.23 529.233 158.972 518.074 158.972Z" fill="white"/>
<path d="M202.021 104.48H183.775L179.394 117.438H171.665L188.948 69.4978H196.977L214.259 117.438H206.399L202.021 104.48ZM185.665 98.5006H200.128L192.998 77.4716H192.799L185.665 98.5006ZM251.583 99.9637C251.583 110.825 245.778 117.803 237.019 117.803C234.8 117.919 232.593 117.407 230.651 116.326C228.709 115.244 227.11 113.637 226.038 111.688H225.872V129H218.708V82.4857H225.643V88.2992H225.774C226.896 86.3594 228.522 84.7604 230.478 83.6724C232.435 82.5843 234.65 82.0478 236.887 82.1201C245.744 82.1201 251.583 89.1327 251.583 99.9637ZM244.22 99.9637C244.22 92.8874 240.568 88.2351 234.997 88.2351C229.524 88.2351 225.842 92.9851 225.842 99.9633C225.842 107.006 229.524 111.722 234.997 111.722C240.568 111.722 244.22 107.104 244.22 99.9637ZM289.996 99.9637C289.996 110.825 284.19 117.803 275.43 117.803C273.211 117.919 271.004 117.407 269.062 116.326C267.12 115.244 265.522 113.637 264.45 111.688H264.284V129H257.12V82.4857H264.054V88.2992H264.186C265.307 86.3594 266.933 84.7604 268.89 83.6724C270.847 82.5843 273.061 82.0478 275.298 82.1201C284.156 82.1201 289.996 89.1327 289.996 99.9637ZM282.631 99.9637C282.631 92.8874 278.98 88.2351 273.409 88.2351C267.935 88.2351 264.254 92.9851 264.254 99.9633C264.254 107.006 267.935 111.722 273.409 111.722C278.98 111.722 282.631 107.104 282.631 99.9637ZM315.38 104.081C315.91 108.834 320.522 111.956 326.823 111.956C332.861 111.956 337.205 108.834 337.205 104.548C337.205 100.827 334.585 98.5986 328.382 97.0718L322.178 95.5751C313.388 93.4487 309.308 89.3319 309.308 82.6513C309.308 74.3797 316.505 68.6986 326.722 68.6986C336.84 68.6986 343.774 74.3797 344.008 82.6513H336.776C336.343 77.8673 332.394 74.9793 326.624 74.9793C320.853 74.9793 316.904 77.9013 316.904 82.1537C316.904 85.5432 319.426 87.5375 325.596 89.064L330.87 90.3611C340.691 92.6871 344.768 96.6383 344.768 103.65C344.768 112.619 337.638 118.237 326.292 118.237C315.676 118.237 308.509 112.751 308.046 104.08L315.38 104.081ZM360.236 74.2145V82.4857H366.872V88.1672H360.236V107.436C360.236 110.429 361.564 111.824 364.482 111.824C365.27 111.81 366.056 111.755 366.838 111.658V117.306C365.527 117.551 364.194 117.662 362.86 117.637C355.794 117.637 353.038 114.98 353.038 108.201V88.1672H347.964V82.4857H353.038V74.2145H360.236ZM370.712 99.9637C370.712 88.9663 377.179 82.056 387.264 82.056C397.383 82.056 403.82 88.9663 403.82 99.9637C403.82 110.991 397.416 117.871 387.264 117.871C377.115 117.871 370.712 110.991 370.712 99.9637ZM396.52 99.9637C396.52 92.4199 393.069 87.9672 387.264 87.9672C381.459 87.9672 378.007 92.4535 378.007 99.9637C378.007 107.538 381.459 111.956 387.264 111.956C393.069 111.956 396.52 107.538 396.52 99.9637ZM409.726 82.4857H416.558V88.4347H416.724C417.186 86.5767 418.273 84.9347 419.802 83.7847C421.331 82.6348 423.208 82.0469 425.119 82.1201C425.944 82.1171 426.767 82.2069 427.573 82.3876V89.0983C426.531 88.7794 425.443 88.633 424.354 88.6648C423.314 88.6225 422.276 88.8062 421.313 89.2034C420.35 89.6006 419.484 90.2018 418.775 90.9658C418.066 91.7298 417.53 92.6384 417.205 93.6293C416.879 94.6201 416.772 95.6698 416.89 96.7062V117.438H409.726V82.4857ZM460.601 107.172C459.638 113.517 453.468 117.871 445.574 117.871C435.421 117.871 429.12 111.059 429.12 100.129C429.12 89.1663 435.455 82.056 445.273 82.056C454.928 82.056 461 88.6988 461 99.2962V101.754H436.351V102.188C436.237 103.474 436.398 104.77 436.823 105.989C437.248 107.209 437.926 108.324 438.814 109.26C439.702 110.196 440.779 110.933 441.973 111.42C443.167 111.908 444.451 112.136 445.74 112.088C447.433 112.247 449.131 111.854 450.583 110.968C452.036 110.083 453.163 108.751 453.799 107.172H460.601ZM436.385 96.7402H453.833C453.897 95.5836 453.722 94.4261 453.319 93.3405C452.915 92.2549 452.292 91.2645 451.488 90.4315C450.685 89.5985 449.718 88.9409 448.648 88.5C447.578 88.059 446.429 87.8443 445.273 87.8691C444.106 87.8622 442.95 88.0866 441.87 88.5296C440.791 88.9726 439.81 89.6252 438.983 90.45C438.157 91.2747 437.502 92.2552 437.056 93.3348C436.61 94.4145 436.382 95.5718 436.385 96.7402ZM184.769 33.4132C186.271 33.3052 187.778 33.5325 189.182 34.0785C190.585 34.6245 191.85 35.4757 192.886 36.5706C193.921 37.6656 194.701 38.9771 195.169 40.4104C195.637 41.8437 195.781 43.3632 195.592 44.8592C195.592 52.2181 191.62 56.4485 184.769 56.4485H176.461V33.4128L184.769 33.4132ZM180.034 53.1906H184.37C185.443 53.2548 186.517 53.0785 187.514 52.6746C188.51 52.2707 189.404 51.6494 190.131 50.8558C190.858 50.0622 191.398 49.1164 191.714 48.0871C192.029 47.0579 192.112 45.9711 191.955 44.9059C192.1 43.845 192.01 42.7649 191.689 41.7432C191.369 40.7215 190.827 39.7834 190.102 38.9961C189.377 38.2088 188.487 37.5919 187.496 37.1894C186.505 36.787 185.438 36.6091 184.37 36.6684H180.034V53.1906ZM199.627 47.7488C199.518 46.6064 199.648 45.4538 200.01 44.3649C200.372 43.2759 200.957 42.2747 201.728 41.4255C202.498 40.5762 203.438 39.8976 204.486 39.4333C205.533 38.969 206.667 38.7291 207.813 38.7291C208.958 38.7291 210.092 38.969 211.14 39.4333C212.188 39.8976 213.127 40.5762 213.898 41.4255C214.668 42.2747 215.253 43.2759 215.615 44.3649C215.977 45.4538 216.107 46.6064 215.998 47.7488C216.11 48.8925 215.981 50.047 215.62 51.1379C215.26 52.2289 214.675 53.2322 213.904 54.0833C213.133 54.9345 212.193 55.6147 211.144 56.0802C210.095 56.5456 208.96 56.7861 207.813 56.7861C206.665 56.7861 205.53 56.5456 204.481 56.0802C203.432 55.6147 202.492 54.9345 201.721 54.0833C200.95 53.2322 200.366 52.2289 200.005 51.1379C199.644 50.047 199.516 48.8925 199.627 47.7488ZM212.475 47.7488C212.475 43.9806 210.785 41.777 207.818 41.777C204.841 41.777 203.166 43.9806 203.166 47.7488C203.166 51.5472 204.841 53.7338 207.818 53.7338C210.785 53.7338 212.475 51.5321 212.475 47.7488ZM237.76 56.4481H234.206L230.619 43.6451H230.348L226.776 56.4481H223.256L218.472 39.0642H221.946L225.056 52.3289H225.311L228.88 39.0642H232.166L235.735 52.3289H236.006L239.1 39.0642H242.526L237.76 56.4481ZM246.55 39.0646H249.847V41.826H250.103C250.538 40.8341 251.27 40.0026 252.199 39.4474C253.127 38.8922 254.206 38.641 255.283 38.7287C256.128 38.6652 256.976 38.7927 257.765 39.1019C258.553 39.4112 259.262 39.8941 259.839 40.515C260.416 41.136 260.846 41.879 261.098 42.689C261.349 43.499 261.415 44.3552 261.291 45.1943V56.4477H257.866V46.056C257.866 43.2625 256.653 41.8731 254.12 41.8731C253.547 41.8464 252.974 41.9442 252.442 42.1597C251.91 42.3753 251.431 42.7035 251.037 43.1219C250.643 43.5403 250.345 44.039 250.161 44.5838C249.978 45.1286 249.915 45.7067 249.975 46.2783V56.4481H246.55V39.0646ZM266.75 32.2782H270.175V56.4481H266.75V32.2782ZM274.937 47.7488C274.828 46.6063 274.958 45.4535 275.32 44.3644C275.682 43.2753 276.267 42.274 277.038 41.4246C277.809 40.5752 278.748 39.8966 279.796 39.4322C280.844 38.9678 281.978 38.7279 283.124 38.7279C284.27 38.7279 285.403 38.9678 286.451 39.4322C287.499 39.8966 288.439 40.5752 289.21 41.4246C289.98 42.274 290.565 43.2753 290.927 44.3644C291.289 45.4535 291.419 46.6063 291.31 47.7488C291.421 48.8924 291.292 50.0465 290.931 51.1371C290.57 52.2277 289.985 53.2306 289.214 54.0814C288.443 54.9322 287.503 55.6121 286.454 56.0773C285.405 56.5426 284.271 56.7829 283.124 56.7829C281.976 56.7829 280.842 56.5426 279.793 56.0773C278.744 55.6121 277.804 54.9322 277.033 54.0814C276.262 53.2306 275.677 52.2277 275.316 51.1371C274.955 50.0465 274.826 48.8924 274.937 47.7488ZM287.785 47.7488C287.785 43.9806 286.095 41.777 283.128 41.777C280.151 41.777 278.476 43.9806 278.476 47.7488C278.476 51.5472 280.151 53.7338 283.128 53.7338C286.095 53.7338 287.785 51.5321 287.785 47.7488ZM294.916 51.5321C294.916 48.4028 297.243 46.5988 301.372 46.3424L306.074 46.071V44.5705C306.074 42.7344 304.862 41.6979 302.521 41.6979C300.608 41.6979 299.283 42.4009 298.903 43.63H295.586C295.936 40.6439 298.741 38.7291 302.679 38.7291C307.03 38.7291 309.484 40.8987 309.484 44.5705V56.4481H306.187V54.0052H305.916C305.366 54.8814 304.593 55.5958 303.677 56.0753C302.761 56.5548 301.735 56.7823 300.702 56.7345C299.974 56.8104 299.237 56.7326 298.54 56.506C297.844 56.2794 297.202 55.909 296.657 55.4189C296.112 54.9287 295.675 54.3296 295.375 53.6602C295.076 52.9907 294.919 52.2658 294.916 51.5321ZM306.074 50.0466V48.5931L301.835 48.8645C299.445 49.0247 298.361 49.8393 298.361 51.3715C298.361 52.9362 299.716 53.8469 301.579 53.8469C302.125 53.9022 302.677 53.847 303.201 53.6845C303.725 53.522 304.212 53.2556 304.631 52.901C305.05 52.5465 305.394 52.111 305.642 51.6206C305.89 51.1303 306.037 50.595 306.074 50.0466ZM313.987 47.7488C313.987 42.2557 316.806 38.7762 321.192 38.7762C322.276 38.7261 323.353 38.9863 324.296 39.5264C325.238 40.0665 326.008 40.8641 326.515 41.826H326.771V32.2778H330.196V56.4477H326.914V53.7009H326.643C326.097 54.6564 325.3 55.4441 324.34 55.9788C323.379 56.5134 322.29 56.7746 321.192 56.7341C316.776 56.7341 313.987 53.2547 313.987 47.7488ZM317.525 47.7488C317.525 51.4356 319.261 53.6546 322.163 53.6546C325.05 53.6546 326.835 51.4039 326.835 47.7635C326.835 44.1408 325.031 41.8581 322.163 41.8581C319.279 41.8581 317.525 44.0918 317.525 47.7488ZM344.369 47.7488C344.26 46.6064 344.39 45.4538 344.752 44.3649C345.114 43.2759 345.699 42.2747 346.469 41.4255C347.24 40.5762 348.179 39.8976 349.227 39.4333C350.275 38.969 351.408 38.7291 352.554 38.7291C353.7 38.7291 354.833 38.969 355.881 39.4333C356.929 39.8976 357.869 40.5762 358.639 41.4255C359.41 42.2747 359.995 43.2759 360.357 44.3649C360.719 45.4538 360.849 46.6064 360.74 47.7488C360.851 48.8925 360.723 50.047 360.362 51.1379C360.001 52.2289 359.417 53.2322 358.646 54.0833C357.875 54.9345 356.935 55.6147 355.886 56.0802C354.837 56.5456 353.702 56.7861 352.554 56.7861C351.407 56.7861 350.272 56.5456 349.223 56.0802C348.174 55.6147 347.234 54.9345 346.463 54.0833C345.692 53.2322 345.107 52.2289 344.747 51.1379C344.386 50.047 344.257 48.8925 344.369 47.7488ZM357.217 47.7488C357.217 43.9806 355.526 41.777 352.56 41.777C349.582 41.777 347.908 43.9806 347.908 47.7488C347.908 51.5472 349.583 53.7338 352.56 53.7338C355.526 53.7338 357.217 51.5321 357.217 47.7488ZM365.336 39.0646H368.634V41.826H368.89C369.324 40.8341 370.057 40.0026 370.985 39.4474C371.914 38.8922 372.992 38.641 374.07 38.7287C374.914 38.6652 375.762 38.7927 376.551 39.1019C377.34 39.4112 378.049 39.8941 378.626 40.515C379.203 41.136 379.633 41.879 379.884 42.689C380.136 43.499 380.202 44.3552 380.078 45.1943V56.4477H376.652V46.056C376.652 43.2625 375.44 41.8731 372.906 41.8731C372.333 41.8464 371.761 41.9442 371.229 42.1597C370.696 42.3753 370.217 42.7035 369.823 43.1219C369.43 43.5403 369.131 44.039 368.948 44.5838C368.765 45.1286 368.701 45.7067 368.762 46.2783V56.4481H365.337L365.336 39.0646ZM399.434 34.7366V39.1437H403.195V42.0333H399.434V50.972C399.434 52.793 400.183 53.5905 401.889 53.5905C402.325 53.589 402.761 53.5625 403.194 53.511V56.3689C402.579 56.4791 401.956 56.5378 401.331 56.5442C397.522 56.5442 396.005 55.2019 396.005 51.8506V42.0333H393.249V39.1434H396.005V34.737L399.434 34.7366ZM407.874 32.2782H411.269V41.8581H411.54C411.996 40.8569 412.748 40.0207 413.695 39.4634C414.642 38.9061 415.738 38.6548 416.833 38.7438C417.673 38.698 418.513 38.8385 419.293 39.1552C420.073 39.472 420.773 39.9571 421.344 40.5762C421.915 41.1952 422.342 41.9328 422.596 42.7364C422.849 43.5399 422.923 44.3896 422.811 45.2248V56.4481H419.382V46.071C419.382 43.2942 418.09 41.8882 415.67 41.8882C415.081 41.8399 414.489 41.9209 413.935 42.1258C413.381 42.3306 412.878 42.6542 412.461 43.074C412.045 43.4938 411.725 43.9995 411.525 44.556C411.324 45.1124 411.247 45.706 411.299 46.2953V56.4481H407.874V32.2782ZM442.785 51.7541C442.319 53.3429 441.311 54.7173 439.936 55.6367C438.561 56.5561 436.907 56.9621 435.263 56.7836C434.12 56.8138 432.983 56.5945 431.933 56.1408C430.883 55.687 429.943 55.0098 429.18 54.1561C428.417 53.3024 427.849 52.2927 427.515 51.197C427.181 50.1013 427.089 48.9459 427.245 47.811C427.093 46.6725 427.187 45.5146 427.52 44.4156C427.853 43.3165 428.419 42.3021 429.177 41.4409C429.936 40.5796 430.871 39.8918 431.918 39.4239C432.966 38.956 434.101 38.7189 435.248 38.7287C440.078 38.7287 442.992 42.0333 442.992 47.4921V48.6892H430.735V48.8815C430.681 49.5194 430.761 50.1615 430.97 50.7667C431.179 51.3718 431.511 51.9266 431.946 52.3954C432.382 52.8643 432.91 53.2369 433.497 53.4894C434.085 53.7419 434.718 53.8686 435.357 53.8615C436.177 53.9601 437.007 53.8123 437.742 53.4371C438.478 53.0618 439.085 52.476 439.487 51.7541H442.785ZM430.735 46.1521H439.502C439.545 45.5687 439.466 44.9827 439.27 44.4317C439.073 43.8808 438.764 43.377 438.361 42.9529C437.959 42.5288 437.473 42.1937 436.933 41.9691C436.394 41.7445 435.813 41.6354 435.229 41.6488C434.637 41.6414 434.049 41.7527 433.5 41.9764C432.951 42.2001 432.453 42.5316 432.034 42.9513C431.615 43.371 431.284 43.8704 431.061 44.4201C430.838 44.9699 430.727 45.5588 430.735 46.1521Z" fill="black"/>
<path d="M125.315 78.4902C125.358 75.1394 126.247 71.854 127.898 68.9397C129.55 66.0253 131.911 63.5767 134.761 61.8216C132.951 59.2316 130.562 57.1001 127.784 55.5964C125.007 54.0928 121.918 53.2583 118.763 53.1594C112.032 52.4518 105.506 57.1937 102.076 57.1937C98.5794 57.1937 93.2981 53.2297 87.6109 53.3471C83.9324 53.4662 80.3475 54.5375 77.2054 56.4566C74.0633 58.3758 71.4711 61.0774 69.6814 64.2982C61.9288 77.7405 67.7117 97.4958 75.1378 108.362C78.853 113.683 83.1953 119.626 88.8771 119.415C94.4372 119.184 96.5141 115.864 103.225 115.864C109.875 115.864 111.823 119.415 117.62 119.281C123.586 119.184 127.345 113.937 130.93 108.566C133.6 104.775 135.654 100.584 137.017 96.1504C133.551 94.6822 130.593 92.2247 128.512 89.0842C126.431 85.9437 125.319 82.2592 125.315 78.4902ZM114.365 46.0136C117.618 42.1025 119.221 37.0755 118.833 32C113.863 32.5229 109.272 34.9018 105.975 38.6628C104.363 40.5001 103.129 42.6376 102.342 44.9531C101.555 47.2685 101.232 49.7166 101.391 52.1573C103.877 52.1829 106.336 51.6433 108.583 50.579C110.831 49.5148 112.808 47.9541 114.365 46.0136Z" fill="black"/>
</g>
<defs>
<clipPath id="clip0_329_79">
<rect width="538" height="159" fill="white"/>
</clipPath>
</defs>
</svg>
