<svg width="538" height="159" viewBox="0 0 538 159" fill="none" xmlns="http://www.w3.org/2000/svg">
<g clip-path="url(#clip0_329_66)">
<path d="M518.074 158.972H19.9259C8.76741 158.972 0 150.23 0 139.104V19.8959C0 8.76977 8.76741 0.027832 19.9259 0.027832H518.074C529.233 0.027832 538 8.76977 538 19.8959V139.104C538 150.23 529.233 158.972 518.074 158.972Z" fill="white"/>
<path d="M199.722 45.7097C199.722 48.5484 199.031 51.0323 197.304 52.8065C195.232 54.9355 192.814 56 189.706 56C186.598 56 184.18 54.9355 182.108 52.8065C180.036 50.6774 179 48.1935 179 45C179 41.8065 180.036 39.3226 182.108 37.1935C184.18 35.0645 186.598 34 189.706 34C191.088 34 192.469 34.3548 193.851 35.0645C195.232 35.7742 196.268 36.4839 196.959 37.5484L195.232 39.3226C193.851 37.5484 192.124 36.8387 189.706 36.8387C187.634 36.8387 185.562 37.5484 184.18 39.3226C182.454 40.7419 181.763 42.871 181.763 45.3548C181.763 47.8387 182.454 49.9677 184.18 51.3871C185.907 52.8065 187.634 53.871 189.706 53.871C192.124 53.871 193.851 53.1613 195.577 51.3871C196.613 50.3226 197.304 48.9032 197.304 47.129H189.706V44.2903H199.722V45.7097V45.7097ZM215.608 36.8387H206.284V43.5806H214.918V46.0645H206.284V52.8065H215.608V55.6452H203.521V34.3548H215.608V36.8387ZM227.005 55.6452H224.242V36.8387H218.371V34.3548H232.876V36.8387H227.005V55.6452ZM242.892 55.6452V34.3548H245.655V55.6452H242.892ZM257.397 55.6452H254.634V36.8387H248.763V34.3548H262.923V36.8387H257.052V55.6452H257.397ZM290.206 52.8065C288.134 54.9355 285.717 56 282.608 56C279.5 56 277.082 54.9355 275.01 52.8065C272.938 50.6774 271.902 48.1935 271.902 45C271.902 41.8065 272.938 39.3226 275.01 37.1935C277.082 35.0645 279.5 34 282.608 34C285.717 34 288.134 35.0645 290.206 37.1935C292.278 39.3226 293.314 41.8065 293.314 45C293.314 48.1935 292.278 50.6774 290.206 52.8065ZM277.082 51.0323C278.464 52.4516 280.536 53.5161 282.608 53.5161C284.68 53.5161 286.753 52.8065 288.134 51.0323C289.515 49.6129 290.552 47.4839 290.552 45C290.552 42.5161 289.861 40.3871 288.134 38.9677C286.753 37.5484 284.68 36.4839 282.608 36.4839C280.536 36.4839 278.464 37.1935 277.082 38.9677C275.701 40.3871 274.665 42.5161 274.665 45C274.665 47.4839 275.356 49.6129 277.082 51.0323ZM297.113 55.6452V34.3548H300.222L310.237 51.0323V34.3548H313V55.6452H310.237L299.531 38.2581V55.6452H297.113V55.6452Z" fill="#282323"/>
<path d="M271.511 86.1302C263.199 86.1302 256.618 92.3077 256.618 100.888C256.618 109.124 263.199 115.645 271.511 115.645C279.823 115.645 286.403 109.467 286.403 100.888C286.403 91.9645 279.823 86.1302 271.511 86.1302ZM271.511 109.467C267.008 109.467 263.199 105.692 263.199 100.544C263.199 95.3964 267.008 91.6213 271.511 91.6213C276.013 91.6213 279.823 95.0533 279.823 100.544C279.823 105.692 276.013 109.467 271.511 109.467ZM239.301 86.1302C230.989 86.1302 224.409 92.3077 224.409 100.888C224.409 109.124 230.989 115.645 239.301 115.645C247.613 115.645 254.194 109.467 254.194 100.888C254.194 91.9645 247.613 86.1302 239.301 86.1302ZM239.301 109.467C234.799 109.467 230.989 105.692 230.989 100.544C230.989 95.3964 234.799 91.6213 239.301 91.6213C243.804 91.6213 247.613 95.0533 247.613 100.544C247.613 105.692 243.804 109.467 239.301 109.467ZM200.858 90.5917V96.7692H215.751C215.404 100.201 214.019 102.947 212.287 104.663C210.209 106.722 206.746 109.124 200.858 109.124C191.507 109.124 184.58 101.917 184.58 92.6509C184.58 83.3846 191.853 76.1775 200.858 76.1775C205.707 76.1775 209.517 78.2367 212.287 80.6391L216.79 76.1775C212.98 72.7456 208.131 70 201.204 70C188.736 70 178 80.2959 178 92.6509C178 105.006 188.736 115.302 201.204 115.302C208.131 115.302 212.98 113.243 217.136 108.781C221.292 104.663 222.677 98.8284 222.677 94.3669C222.677 92.9941 222.677 91.6213 222.331 90.5917H200.858V90.5917ZM358.095 95.3964C356.709 91.9645 353.246 86.1302 345.626 86.1302C338.007 86.1302 331.773 91.9645 331.773 100.888C331.773 109.124 338.007 115.645 346.319 115.645C352.9 115.645 357.056 111.527 358.441 109.124L353.592 105.692C351.861 108.095 349.783 109.811 346.319 109.811C342.856 109.811 340.778 108.438 339.046 105.349L358.787 97.1124L358.095 95.3964V95.3964ZM338.007 100.201C338.007 94.7101 342.509 91.6213 345.626 91.6213C348.051 91.6213 350.475 92.9941 351.168 94.7101L338.007 100.201ZM321.729 114.272H328.31V71.3728H321.729V114.272ZM311.339 89.2189C309.608 87.503 306.837 85.787 303.374 85.787C296.1 85.787 289.174 92.3077 289.174 100.544C289.174 108.781 295.754 114.959 303.374 114.959C306.837 114.959 309.608 113.243 310.993 111.527H311.339V113.586C311.339 119.077 308.222 122.166 303.374 122.166C299.564 122.166 296.793 119.42 296.1 117.018L290.559 119.42C292.291 123.195 296.447 128 303.72 128C311.339 128 317.573 123.538 317.573 112.899V86.8166H311.339V89.2189V89.2189ZM303.72 109.467C299.218 109.467 295.408 105.692 295.408 100.544C295.408 95.3964 299.218 91.6213 303.72 91.6213C308.222 91.6213 311.686 95.3964 311.686 100.544C311.686 105.692 308.222 109.467 303.72 109.467ZM388.226 71.3728H372.641V114.272H379.221V98.142H388.226C395.499 98.142 402.426 92.9941 402.426 84.7574C402.426 76.5207 395.499 71.3728 388.226 71.3728V71.3728ZM388.572 91.9645H379.221V77.2071H388.572C393.421 77.2071 396.191 81.3254 396.191 84.4142C395.845 88.1893 393.074 91.9645 388.572 91.9645ZM428.401 85.787C423.552 85.787 418.703 87.8462 416.972 92.3077L422.859 94.7101C424.245 92.3077 426.323 91.6213 428.747 91.6213C432.21 91.6213 435.327 93.6805 435.674 97.1124V97.4556C434.635 96.7692 431.864 95.7396 429.093 95.7396C422.859 95.7396 416.625 99.1716 416.625 105.349C416.625 111.183 421.82 114.959 427.362 114.959C431.864 114.959 433.942 112.899 435.674 110.84H436.02V114.272H442.254V97.7988C441.561 90.2485 435.674 85.787 428.401 85.787V85.787ZM427.708 109.467C425.63 109.467 422.513 108.438 422.513 105.692C422.513 102.26 426.323 101.231 429.44 101.231C432.21 101.231 433.596 101.917 435.327 102.604C434.635 106.722 431.171 109.467 427.708 109.467V109.467ZM464.073 86.8166L456.8 105.349H456.454L448.835 86.8166H441.908L453.337 112.899L446.756 127.314H453.337L471 86.8166H464.073V86.8166ZM405.889 114.272H412.469V71.3728H405.889V114.272Z" fill="#282323"/>
<path d="M71.1761 36.5117C70.1358 37.549 69.7891 39.2778 69.7891 41.3524V117.766C69.7891 119.84 70.4826 121.569 71.5229 122.606L71.8697 122.952L114.869 80.0776V79.3861L71.1761 36.5117Z" fill="url(#paint0_linear_329_66)"/>
<path d="M128.74 94.5996L114.522 80.4234V79.3862L128.74 65.21L129.087 65.5557L146.078 75.237C150.933 78.0031 150.933 82.498 146.078 85.2641L128.74 94.5996V94.5996Z" fill="url(#paint1_linear_329_66)"/>
<path d="M129.086 94.2544L114.522 79.7324L71.1758 122.953C72.9096 124.681 75.337 124.681 78.4579 123.298L129.086 94.2544" fill="url(#paint2_linear_329_66)"/>
<path d="M129.086 65.2103L78.4579 36.5121C75.337 34.7833 72.9096 35.129 71.1758 36.8579L114.522 79.7322L129.086 65.2103V65.2103Z" fill="url(#paint3_linear_329_66)"/>
<path opacity="0.2" d="M128.739 93.9082L78.4579 122.261C75.6838 123.989 73.2564 123.644 71.5226 122.261L71.1758 122.606L71.5226 122.952C73.2564 124.335 75.6838 124.681 78.4579 122.952L128.739 93.9082Z" fill="white"/>
<path opacity="0.12" d="M71.1761 122.261C70.1358 121.224 69.7891 119.495 69.7891 117.42V117.766C69.7891 119.841 70.4826 121.57 71.5229 122.607V122.261H71.1761ZM146.078 84.2273L128.74 93.9086L129.086 94.2544L146.078 84.5731C148.505 83.19 149.546 81.4612 149.546 79.7324C149.546 81.4612 148.159 82.8443 146.078 84.2273V84.2273Z" fill="white"/>
<path opacity="0.25" d="M78.4583 36.8576L146.078 75.2371C148.159 76.6202 149.546 78.0032 149.546 79.732C149.546 78.0032 148.505 76.2744 146.078 74.8913L78.4583 36.5119C73.6035 33.7458 69.7891 35.8203 69.7891 41.3525V41.6983C69.7891 36.5119 73.6035 34.0915 78.4583 36.8576Z" fill="black"/>
</g>
<defs>
<linearGradient id="paint0_linear_329_66" x1="110.708" y1="40.6954" x2="52.6789" y2="98.8898" gradientUnits="userSpaceOnUse">
<stop stop-color="#00A0FF"/>
<stop offset="0.007" stop-color="#00A1FF"/>
<stop offset="0.26" stop-color="#00BEFF"/>
<stop offset="0.512" stop-color="#00D2FF"/>
<stop offset="0.76" stop-color="#00DFFF"/>
<stop offset="1" stop-color="#00E3FF"/>
</linearGradient>
<linearGradient id="paint1_linear_329_66" x1="152.438" y1="79.7354" x2="68.5306" y2="79.7354" gradientUnits="userSpaceOnUse">
<stop stop-color="#FFE000"/>
<stop offset="0.409" stop-color="#FFBD00"/>
<stop offset="0.775" stop-color="#FFA500"/>
<stop offset="1" stop-color="#FF9C00"/>
</linearGradient>
<linearGradient id="paint2_linear_329_66" x1="121.204" y1="87.6711" x2="42.5161" y2="166.588" gradientUnits="userSpaceOnUse">
<stop stop-color="#FF3A44"/>
<stop offset="1" stop-color="#C31162"/>
</linearGradient>
<linearGradient id="paint3_linear_329_66" x1="60.4156" y1="11.1886" x2="95.5551" y2="46.4305" gradientUnits="userSpaceOnUse">
<stop stop-color="#32A071"/>
<stop offset="0.069" stop-color="#2DA771"/>
<stop offset="0.476" stop-color="#15CF74"/>
<stop offset="0.801" stop-color="#06E775"/>
<stop offset="1" stop-color="#00F076"/>
</linearGradient>
<clipPath id="clip0_329_66">
<rect width="538" height="159" fill="white"/>
</clipPath>
</defs>
</svg>
