<?xml version="1.0" encoding="UTF-8"?><svg id="Layer_2" xmlns="http://www.w3.org/2000/svg" xmlns:xlink="http://www.w3.org/1999/xlink" viewBox="0 0 513 513"><defs><style>.cls-1{fill:#ffae3b;}.cls-2{fill:#656a00;isolation:isolate;opacity:.52;}.cls-3{fill:#cd96e3;}.cls-4{fill:#ffda96;}.cls-5{fill:#a2c9ff;}.cls-6{fill:#fffd8a;}.cls-7{fill:#e8cbb4;}.cls-8{fill:#ffd5dc;}.cls-9{clip-path:url(#clippath);}.cls-10{fill:none;}.cls-11{fill:#fff8d9;}.cls-12{fill:#d8ffbf;}.cls-13{fill:#ac8169;}.cls-14{fill:#ff4d00;}.cls-15{fill:#cfe3ff;}</style><clipPath id="clippath"><rect class="cls-10" width="513" height="513"/></clipPath></defs><g id="Layer_1-2"><g class="cls-9"><g><path d="M492.84,156.65c-12.92-30.54-31.41-57.97-54.97-81.53-23.55-23.55-50.98-42.05-81.53-54.97C324.71,6.78,291.12,0,256.5,0s-68.22,6.78-99.84,20.16c-30.54,12.92-57.97,31.41-81.53,54.97-23.55,23.55-42.05,50.99-54.97,81.53C6.78,188.29,0,221.88,0,256.5s6.78,68.22,20.16,99.84c12.92,30.54,31.41,57.98,54.97,81.53,23.55,23.55,50.99,42.05,81.53,54.97,31.63,13.38,65.22,20.16,99.84,20.16s68.22-6.78,99.84-20.16c30.54-12.92,57.98-31.41,81.53-54.97,23.55-23.55,42.05-50.98,54.97-81.53,13.38-31.63,20.16-65.22,20.16-99.84s-6.78-68.22-20.16-99.84h0Zm-129.64,116.21c14.07,8.43,20.84,19.78,23.38,24.05,5.51,9.25,8.15,18.38,9.36,25.82l-132.15,.96c.32-3.86,1.04-8.93,2.57-14.5,3.77-13.68,10.81-24.63,20.91-32.57,10.99-8.64,24.7-13.03,40.76-13.06h.7c17.25,.1,29.84,6.54,34.45,9.3h0Zm-244.18,45.2c-.01-16.33-.09-34.58-.26-54.51H247.04c.79,.21,1.59,.42,2.4,.62v51.38c-12.18-16.6-31.76-28.46-52.78-31.6-23.31-3.47-41.85,4.45-50.82,9.48-12.08,6.78-20.7,15.71-26.83,24.62h0ZM20.91,199.25c13.19-3.57,25.5-9.01,36.62-16.21,12.8-8.27,19.58-15.94,25.57-22.71,6.06-6.84,10.84-12.25,20.78-16.77,23.69-10.77,47.49-3.03,50.13-2.11,6.6,2.29,23.12,9.48,34.15,26.52,8.05,12.44,8.74,23.28,9.48,34.76,.76,11.87,1.54,24.14,10.82,36.71,2.71,3.68,5.9,7.01,9.56,10H14.23c.48-17.06,2.72-33.83,6.68-50.19h0Zm331.51,50.2h-88.86V55.31c12.98,1.25,25.89,5.31,37.74,11.94,13.1,7.33,24.27,17.33,32.29,28.92,6.16,8.9,10.28,16.77,14.21,27.18,2.04,5.38,3.51,10.14,4.6,14.42v111.67h0Zm-102.98,0h-.45c-13.19-3.85-22.97-10.01-29.15-18.38-6.82-9.24-7.41-18.5-8.09-29.23-.78-12.19-1.66-26-11.72-41.54-13.4-20.72-33.39-29.41-41.37-32.18-1.41-.49-4.45-1.46-8.68-2.37,12.02-7.54,17.79-16.41,23.39-25.04,5.8-8.94,11.81-18.18,25.74-27.7,11.21-7.67,28.66-16.59,50.33-17.94V249.44h0Zm14.12,14.13h17.6c-.88,.63-1.75,1.28-2.61,1.96-6.23,4.89-11.13,10.4-14.99,16.1v-18.05h0Zm102.98-14.12v-54.42c7.43,10.78,18.15,20.07,31.33,27.07,11.34,6.03,20.93,8.51,22.69,8.8,1.89,.31,4.7,.55,8.17,.55,12.38,0,33.3-3.04,51.98-16.6,4.54-3.29,8.67-7.06,12.37-11.26,3.34,14.99,5.24,30.3,5.68,45.86h-132.23Zm61.34-164.32c22.26,22.26,39.74,48.18,51.95,77.04,3.34,7.89,6.24,15.91,8.7,24.05-4.34,6.8-9.74,12.58-16.11,17.21-9.1,6.6-19.64,10.93-31.33,12.85-9.02,1.49-16.01,1.02-18.1,.7-1.45-.35-32.64-8.32-47.29-33.91-4.64-8.11-5.11-14.41-5.76-23.13-.48-6.52-1.04-14.08-3.39-23.88v-2.96h-.75c-1.18-4.44-2.72-9.33-4.77-14.75-4.37-11.56-8.95-20.31-15.82-30.22-9.24-13.35-22.04-24.83-37.01-33.21-13.96-7.81-29.26-12.53-44.64-13.8V14.23c30.23,.86,59.55,7.22,87.28,18.94,28.86,12.21,54.78,29.68,77.04,51.94h0Zm-342.77,0c22.26-22.26,48.18-39.74,77.04-51.94,27.72-11.73,57.05-18.08,87.28-18.94v26.69c-25.24,1.36-45.42,11.62-58.3,20.42-16.26,11.12-23.35,22.03-29.61,31.66-6.37,9.81-11.4,17.55-25.22,24.14-15.1,7.21-31.72,9.22-46.8,5.67-9.37-2.21-18.33-6.57-26.21-12.72,6.66-8.76,13.94-17.11,21.82-24.99h0Zm-30.04,36.49c9.37,7.21,20.02,12.34,31.19,14.96,.36,.08,.71,.16,1.07,.24-6.13,4.36-10.39,9.17-14.81,14.16-5.65,6.38-11.49,12.98-22.66,20.21-7.55,4.89-15.73,8.87-24.42,11.9,2.25-7.06,4.82-14.04,7.73-20.92,6.04-14.27,13.36-27.81,21.91-40.55h0Zm-21.91,229.23c-11.73-27.72-18.08-57.05-18.94-87.28H104.63c.6,71.31,.05,121.1-.49,137.56-.13,3.89-.42,13.02-4.34,23.79-1.46,4.03-3.3,7.94-5.5,11.69-3.12-2.82-6.19-5.73-9.18-8.72-22.26-22.26-39.74-48.18-51.94-77.04h0Zm72.03,95.03c3.2-5.12,5.84-10.53,7.88-16.14,4.69-12.89,5.03-23.59,5.18-28.16,.27-8.28,.55-24.92,.68-48.42,1.77-8.39,9.01-33.49,33.82-47.4,5.96-3.34,21.96-10.79,41.83-7.83,9.81,1.46,19.45,5.28,27.87,11.06,8,5.48,14.57,12.44,19,20.12,2.94,5.11,3.75,8.17,4.76,12.05,.75,2.86,1.57,5.97,3.22,9.96v147.64c-30.23-.86-59.56-7.22-87.28-18.94-20.57-8.7-39.64-20.08-56.96-33.95h0Zm245.65,33.96c-27.72,11.73-57.05,18.08-87.28,18.94v-123.91c5.53,7.19,12.89,15.02,22.07,21.23,15.08,10.2,27.86,11.13,41.38,12.11,7.23,.52,14.7,1.07,23.31,3.06,20.42,4.73,39.94,16.19,58.11,34.11-17.49,14.1-36.77,25.65-57.59,34.46h0Zm128.99-128.99c-12.21,28.86-29.68,54.78-51.94,77.04-2.84,2.84-5.74,5.59-8.69,8.28-20.29-20.26-42.36-33.26-65.69-38.66-9.68-2.24-18.07-2.85-25.48-3.38-12.59-.91-22.53-1.63-34.48-9.72-14.36-9.72-23.82-24.84-27.22-30.89-1.13-2-2.03-3.76-2.77-5.34v-10.35l147.73-1.07-.44-7.43c-.83-13.99-5.02-27.7-12.14-39.64-2.51-4.21-9.69-16.26-23.9-26.12h123.96c-.86,30.23-7.22,59.55-18.94,87.28h0Z"/><path class="cls-2" d="M328.04,263.56c-16.06,.03-29.77,4.43-40.76,13.06-10.1,7.94-17.14,18.89-20.91,32.57-1.54,5.57-2.25,10.63-2.57,14.5l132.15-.96c-1.21-7.44-3.84-16.57-9.36-25.82-2.55-4.27-9.32-15.62-23.38-24.05-4.61-2.76-17.2-9.2-34.45-9.3h-.7Z"/><path class="cls-4" d="M369.93,159.93c.65,8.72,1.11,15.02,5.76,23.13,14.65,25.59,45.85,33.56,47.29,33.91,2.1,.32,9.08,.78,18.1-.7,11.7-1.93,22.24-6.25,31.33-12.85,6.37-4.62,11.77-10.4,16.11-17.21-2.46-8.14-5.36-16.16-8.7-24.05-12.21-28.86-29.68-54.78-51.94-77.04-22.26-22.26-48.18-39.74-77.04-51.94-27.72-11.73-57.05-18.08-87.28-18.94v26.89c15.38,1.28,30.68,5.99,44.64,13.8,14.97,8.38,27.77,19.86,37.01,33.21,6.86,9.91,11.44,18.67,15.81,30.22,2.05,5.42,3.6,10.31,4.77,14.75h.75v2.96c2.35,9.8,2.91,17.36,3.39,23.88h0Z"/><path class="cls-13" d="M263.56,249.44h88.86v-111.67c-1.09-4.29-2.57-9.04-4.61-14.42-3.93-10.41-8.05-18.28-14.21-27.18-8.02-11.59-19.19-21.59-32.29-28.92-11.84-6.63-24.76-10.69-37.74-11.94V249.44h0Z"/><path class="cls-7" d="M263.56,281.62c3.86-5.7,8.76-11.21,14.99-16.1,.86-.67,1.73-1.33,2.61-1.96h-17.6v18.05h0Z"/><path class="cls-14" d="M327.01,408.2c-13.52-.98-26.3-1.9-41.38-12.11-9.18-6.21-16.53-14.04-22.07-21.23v123.91c30.23-.86,59.55-7.22,87.28-18.94,20.82-8.81,40.1-20.35,57.59-34.46-18.17-17.92-37.69-29.39-58.11-34.11-8.61-1.99-16.08-2.53-23.31-3.06h0Z"/><path class="cls-11" d="M427.89,427.89c22.26-22.26,39.74-48.18,51.94-77.04,11.73-27.72,18.08-57.05,18.94-87.28h-123.96c14.21,9.87,21.39,21.92,23.9,26.12,7.12,11.94,11.32,25.65,12.14,39.64l.44,7.43-147.73,1.07v10.35c.74,1.58,1.64,3.34,2.76,5.34,3.4,6.05,12.87,21.18,27.22,30.89,11.95,8.09,21.89,8.81,34.48,9.72,7.4,.54,15.8,1.14,25.48,3.38,23.33,5.4,45.4,18.4,65.69,38.66,2.95-2.68,5.85-5.44,8.69-8.28h0Z"/><path class="cls-12" d="M208.47,239.45c-9.28-12.58-10.07-24.85-10.82-36.72-.73-11.48-1.43-22.32-9.48-34.76-11.03-17.04-27.56-24.22-34.15-26.52-2.64-.92-26.44-8.65-50.13,2.11-9.94,4.52-14.73,9.93-20.78,16.77-5.99,6.76-12.77,14.43-25.57,22.71-11.13,7.19-23.43,12.63-36.62,16.21-3.96,16.36-6.2,33.13-6.68,50.19H218.03c-3.66-2.98-6.85-6.32-9.56-9.99h0Z"/><path class="cls-6" d="M249.44,55.07c-21.68,1.35-39.12,10.27-50.33,17.94-13.93,9.52-19.93,18.76-25.74,27.7-5.6,8.62-11.37,17.5-23.39,25.04,4.24,.9,7.28,1.88,8.68,2.37,7.97,2.77,27.96,11.47,41.37,32.18,10.05,15.54,10.93,29.35,11.71,41.54,.68,10.73,1.28,19.99,8.09,29.23,6.18,8.37,15.96,14.53,29.15,18.38h.45V55.07Z"/><path class="cls-3" d="M249.43,264.18c-.81-.2-1.61-.41-2.4-.62H118.75c.17,19.93,.24,38.18,.26,54.51,6.12-8.91,14.75-17.84,26.83-24.62,8.97-5.03,27.51-12.96,50.82-9.49,21.02,3.13,40.6,14.99,52.78,31.6v-51.38h0Z"/><path class="cls-15" d="M493.09,203.58c-3.71,4.2-7.84,7.97-12.37,11.26-18.67,13.56-39.6,16.6-51.98,16.6-3.48,0-6.28-.24-8.17-.55-1.76-.29-11.35-2.78-22.69-8.8-13.18-7-23.9-16.29-31.33-27.07v54.42h132.23c-.44-15.55-2.34-30.87-5.68-45.86Z"/><path class="cls-5" d="M249.43,14.23c-30.23,.86-59.55,7.22-87.28,18.94-28.86,12.21-54.78,29.68-77.04,51.94-7.88,7.88-15.16,16.22-21.82,24.99,7.88,6.15,16.84,10.51,26.21,12.72,15.08,3.55,31.7,1.54,46.8-5.67,13.82-6.6,18.85-14.34,25.22-24.14,6.26-9.63,13.35-20.54,29.61-31.66,12.88-8.8,33.07-19.07,58.3-20.42V14.23Z"/><path class="cls-8" d="M33.17,350.84c12.21,28.86,29.68,54.78,51.94,77.04,3,3,6.06,5.9,9.18,8.72,2.19-3.75,4.03-7.66,5.5-11.69,3.92-10.78,4.22-19.9,4.34-23.79,.54-16.46,1.09-66.25,.49-137.56H14.23c.86,30.23,7.22,59.55,18.94,87.28Z"/><path class="cls-1" d="M249.44,498.77v-147.64c-1.65-4-2.47-7.1-3.22-9.96-1.02-3.88-1.82-6.94-4.76-12.05-4.43-7.68-11-14.64-19-20.12-8.43-5.77-18.07-9.59-27.87-11.06-19.87-2.96-35.87,4.49-41.83,7.83-24.8,13.91-32.05,39.01-33.82,47.4-.13,23.5-.41,40.14-.68,48.42-.15,4.57-.5,15.27-5.18,28.16-2.04,5.61-4.68,11.01-7.88,16.14,17.32,13.88,36.4,25.26,56.96,33.96,27.72,11.73,57.05,18.08,87.28,18.94h0Z"/><path class="cls-4" d="M72.52,150.97c4.42-4.99,8.68-9.8,14.81-14.16-.36-.08-.71-.15-1.07-.24-11.17-2.63-21.82-7.76-31.19-14.96-8.55,12.74-15.87,26.29-21.91,40.55-2.91,6.88-5.48,13.86-7.73,20.92,8.69-3.03,16.87-7.01,24.42-11.9,11.17-7.23,17.01-13.82,22.66-20.21h0Z"/></g></g></g></svg>