<?xml version="1.0" encoding="UTF-8"?><svg id="Layer_2" xmlns="http://www.w3.org/2000/svg" xmlns:xlink="http://www.w3.org/1999/xlink" viewBox="0 0 267 267"><defs><style>.cls-1{fill:#c398c6;}.cls-2{fill:#daeabb;}.cls-3{fill:#fbd5dc;}.cls-4{fill:#ffda96;}.cls-5{fill:#a7c6e9;}.cls-6{fill:#ab8169;}.cls-7{fill:#fbad3c;}.cls-8{fill:#faf28e;}.cls-9{fill:#bbb69f;}.cls-10{fill:#e9ccb5;}.cls-11{clip-path:url(#clippath);}.cls-12{fill:none;}.cls-13{fill:#282323;}.cls-14{fill:#7490b2;}.cls-15{fill:#d1e2f4;}.cls-16{fill:#f05023;}</style><clipPath id="clippath"><rect class="cls-12" width="267" height="267"/></clipPath></defs><g id="Layer_1-2"><g class="cls-11"><g><path class="cls-13" d="M256.51,81.53c-6.72-15.9-16.35-30.17-28.61-42.43-12.26-12.26-26.54-21.88-42.43-28.61C169,3.53,151.52,0,133.5,0s-35.51,3.53-51.97,10.49c-15.9,6.72-30.17,16.35-42.43,28.61-12.26,12.26-21.88,26.54-28.61,42.43C3.53,98,0,115.48,0,133.5s3.53,35.51,10.49,51.97c6.72,15.9,16.35,30.17,28.61,42.43,12.26,12.26,26.54,21.88,42.43,28.61,16.46,6.96,33.95,10.49,51.97,10.49s35.51-3.53,51.97-10.49c15.9-6.72,30.17-16.35,42.43-28.61s21.88-26.54,28.61-42.43c6.96-16.46,10.49-33.95,10.49-51.97s-3.53-35.51-10.49-51.97h0Zm-67.47,60.48c7.32,4.39,10.84,10.3,12.17,12.52,2.87,4.81,4.24,9.57,4.87,13.44l-68.78,.5c.17-2.01,.54-4.65,1.34-7.54,1.96-7.12,5.63-12.82,10.88-16.95,5.72-4.5,12.86-6.78,21.22-6.8h.37c8.98,.05,15.53,3.4,17.93,4.84h0Zm-127.09,23.53c0-8.5-.05-18-.13-28.37h66.77c.41,.11,.83,.22,1.25,.32v26.74c-6.34-8.64-16.53-14.82-27.47-16.44-12.13-1.81-21.78,2.32-26.45,4.94-6.29,3.53-10.78,8.18-13.96,12.81h0ZM10.88,103.7c6.87-1.86,13.27-4.69,19.06-8.44,6.66-4.31,10.19-8.3,13.31-11.82,3.15-3.56,5.64-6.38,10.82-8.73,12.33-5.6,24.72-1.58,26.09-1.1,3.43,1.19,12.03,4.93,17.77,13.8,4.19,6.48,4.55,12.12,4.93,18.09,.39,6.18,.8,12.57,5.63,19.11,1.41,1.91,3.07,3.65,4.97,5.2H7.4c.25-8.88,1.41-17.61,3.48-26.12h0Zm172.54,26.13h-46.25V28.79c6.75,.65,13.48,2.76,19.64,6.21,6.82,3.82,12.63,9.02,16.81,15.05,3.21,4.63,5.35,8.73,7.4,14.14,1.06,2.8,1.83,5.28,2.4,7.51v58.12h0Zm-53.6,0h-.24c-6.86-2-11.96-5.21-15.17-9.56-3.55-4.81-3.86-9.63-4.21-15.21-.41-6.34-.86-13.53-6.1-21.62-6.98-10.78-17.38-15.31-21.53-16.75-.73-.26-2.31-.76-4.52-1.23,6.26-3.93,9.26-8.54,12.17-13.03,3.02-4.65,6.15-9.46,13.4-14.42,5.84-3.99,14.92-8.63,26.19-9.34v101.16h0Zm7.35,7.35h9.16c-.46,.33-.91,.67-1.36,1.02-3.24,2.55-5.79,5.41-7.8,8.38v-9.4h0Zm53.6-7.35v-28.32c3.87,5.61,9.45,10.44,16.3,14.09,5.9,3.14,10.89,4.43,11.81,4.58,.98,.16,2.44,.29,4.25,.29,6.44,0,17.33-1.58,27.05-8.64,2.36-1.71,4.51-3.67,6.44-5.86,1.74,7.8,2.73,15.77,2.96,23.87h-68.82Zm31.93-85.53c11.59,11.59,20.68,25.08,27.04,40.1,1.74,4.11,3.25,8.28,4.53,12.52-2.26,3.54-5.07,6.55-8.39,8.96-4.73,3.44-10.22,5.69-16.31,6.69-4.7,.77-8.33,.53-9.42,.36-.75-.18-16.99-4.33-24.61-17.65-2.42-4.22-2.66-7.5-3-12.04-.25-3.39-.54-7.33-1.77-12.43v-1.54h-.39c-.61-2.31-1.42-4.85-2.48-7.68-2.27-6.01-4.66-10.57-8.23-15.73-4.81-6.95-11.47-12.92-19.26-17.28-7.26-4.07-15.23-6.52-23.23-7.18V7.4c15.73,.45,31,3.76,45.42,9.86,15.02,6.35,28.51,15.45,40.1,27.04h0Zm-178.4,0c11.59-11.59,25.08-20.68,40.1-27.04,14.43-6.1,29.69-9.41,45.42-9.86v13.89c-13.13,.71-23.64,6.05-30.34,10.63-8.46,5.79-12.15,11.47-15.41,16.48-3.31,5.1-5.93,9.13-13.13,12.57-7.86,3.75-16.51,4.8-24.36,2.95-4.88-1.15-9.54-3.42-13.64-6.62,3.47-4.56,7.25-8.9,11.36-13.01h0Zm-15.63,18.99c4.88,3.75,10.42,6.42,16.24,7.79,.18,.04,.37,.08,.55,.12-3.19,2.27-5.41,4.77-7.71,7.37-2.94,3.32-5.98,6.76-11.79,10.52-3.93,2.54-8.19,4.62-12.71,6.19,1.17-3.68,2.51-7.31,4.02-10.89,3.14-7.42,6.95-14.47,11.4-21.11h0Zm-11.4,119.31c-6.1-14.43-9.41-29.69-9.86-45.43H54.46c.31,37.12,.02,63.03-.26,71.59-.07,2.03-.22,6.77-2.26,12.38-.76,2.1-1.72,4.13-2.86,6.08-1.63-1.47-3.22-2.98-4.78-4.54-11.59-11.59-20.68-25.08-27.04-40.1h0Zm37.49,49.46c1.66-2.67,3.04-5.48,4.1-8.4,2.44-6.71,2.62-12.28,2.7-14.66,.14-4.31,.29-12.97,.35-25.2,.92-4.36,4.69-17.43,17.6-24.67,3.1-1.74,11.43-5.62,21.77-4.08,5.1,.76,10.12,2.75,14.51,5.75,4.17,2.85,7.58,6.47,9.89,10.47,1.53,2.66,1.95,4.25,2.48,6.27,.39,1.49,.82,3.11,1.68,5.19v76.85c-15.73-.45-31-3.76-45.42-9.86-10.7-4.53-20.63-10.45-29.65-17.67h0Zm127.85,17.67c-14.43,6.1-29.69,9.41-45.43,9.86v-64.49c2.88,3.74,6.71,7.82,11.49,11.05,7.85,5.31,14.5,5.79,21.54,6.3,3.76,.27,7.65,.55,12.13,1.59,10.63,2.46,20.79,8.43,30.24,17.75-9.1,7.34-19.14,13.35-29.97,17.93h0Zm67.14-67.14c-6.35,15.02-15.45,28.51-27.04,40.1-1.48,1.48-2.99,2.91-4.52,4.31-10.56-10.55-22.05-17.31-34.19-20.12-5.04-1.16-9.41-1.48-13.26-1.76-6.55-.47-11.73-.85-17.95-5.06-7.47-5.06-12.4-12.93-14.17-16.08-.59-1.04-1.05-1.96-1.44-2.78v-5.39l76.89-.56-.23-3.87c-.43-7.28-2.62-14.42-6.32-20.63-1.31-2.19-5.05-8.46-12.44-13.6h64.52c-.44,15.73-3.76,31-9.86,45.43h0Z"/><path class="cls-14" d="M170.73,137.18c-8.36,.02-15.49,2.3-21.22,6.8-5.26,4.13-8.92,9.83-10.89,16.95-.8,2.9-1.17,5.53-1.34,7.54l68.78-.5c-.63-3.87-2-8.62-4.87-13.44-1.32-2.22-4.85-8.13-12.17-12.52-2.4-1.44-8.95-4.79-17.93-4.84h-.37Z"/><path class="cls-4" d="M192.54,83.24c.34,4.54,.58,7.82,3,12.04,7.62,13.32,23.86,17.47,24.61,17.65,1.09,.17,4.73,.41,9.42-.37,6.09-1,11.57-3.25,16.31-6.69,3.32-2.41,6.13-5.42,8.39-8.96-1.28-4.23-2.79-8.41-4.53-12.52-6.35-15.02-15.45-28.51-27.04-40.1-11.59-11.59-25.08-20.68-40.1-27.04-14.43-6.1-29.69-9.41-45.43-9.86v13.99c8,.66,15.97,3.12,23.23,7.18,7.79,4.36,14.45,10.33,19.26,17.28,3.57,5.16,5.96,9.71,8.23,15.73,1.07,2.82,1.87,5.36,2.48,7.68h.39v1.54c1.22,5.1,1.51,9.03,1.77,12.43h0Z"/><path class="cls-6" d="M137.18,129.82h46.25v-58.12c-.57-2.23-1.34-4.71-2.4-7.51-2.05-5.42-4.19-9.51-7.4-14.14-4.18-6.03-9.99-11.24-16.81-15.05-6.16-3.45-12.89-5.56-19.64-6.21v101.04h0Z"/><path class="cls-10" d="M137.18,146.57c2.01-2.97,4.56-5.83,7.8-8.38,.45-.35,.9-.69,1.36-1.02h-9.16v9.4h0Z"/><path class="cls-16" d="M170.2,212.46c-7.04-.51-13.69-.99-21.54-6.3-4.78-3.23-8.61-7.31-11.49-11.05v64.49c15.73-.45,31-3.76,45.43-9.86,10.83-4.58,20.87-10.59,29.97-17.93-9.46-9.33-19.62-15.3-30.24-17.75-4.48-1.04-8.37-1.32-12.13-1.59h0Z"/><path class="cls-9" d="M222.7,222.7c11.59-11.59,20.68-25.08,27.04-40.1,6.1-14.43,9.41-29.69,9.86-45.43h-64.52c7.39,5.14,11.13,11.41,12.44,13.6,3.7,6.22,5.89,13.35,6.32,20.63l.23,3.87-76.89,.56v5.39c.38,.82,.85,1.74,1.44,2.78,1.77,3.15,6.7,11.02,14.17,16.08,6.22,4.21,11.4,4.59,17.95,5.06,3.85,.28,8.22,.6,13.26,1.76,12.14,2.81,23.63,9.57,34.19,20.12,1.54-1.4,3.05-2.83,4.52-4.31h0Z"/><path class="cls-2" d="M108.5,124.62c-4.83-6.55-5.24-12.93-5.63-19.11-.38-5.98-.74-11.62-4.93-18.09-5.74-8.87-14.34-12.61-17.77-13.8-1.37-.48-13.76-4.5-26.09,1.1-5.17,2.35-7.67,5.17-10.82,8.73-3.12,3.52-6.65,7.51-13.31,11.82-5.79,3.74-12.19,6.58-19.06,8.44-2.06,8.51-3.23,17.24-3.48,26.12H113.48c-1.9-1.55-3.56-3.29-4.97-5.2h0Z"/><path class="cls-8" d="M129.82,28.66c-11.28,.7-20.36,5.35-26.19,9.34-7.25,4.95-10.37,9.76-13.4,14.42-2.92,4.49-5.92,9.11-12.17,13.03,2.21,.47,3.79,.98,4.52,1.23,4.15,1.44,14.55,5.97,21.53,16.75,5.23,8.09,5.69,15.28,6.1,21.62,.36,5.58,.66,10.41,4.21,15.21,3.21,4.36,8.31,7.56,15.17,9.56h.24V28.66Z"/><path class="cls-1" d="M129.82,137.5c-.42-.1-.84-.21-1.25-.32H61.81c.09,10.37,.13,19.87,.13,28.37,3.19-4.64,7.67-9.29,13.96-12.81,4.67-2.62,14.32-6.74,26.45-4.94,10.94,1.63,21.13,7.8,27.47,16.44v-26.74h0Z"/><path class="cls-15" d="M256.64,105.96c-1.93,2.19-4.08,4.15-6.44,5.86-9.72,7.06-20.61,8.64-27.05,8.64-1.81,0-3.27-.12-4.25-.29-.92-.15-5.91-1.45-11.81-4.58-6.86-3.64-12.44-8.48-16.3-14.09v28.32h68.82c-.23-8.09-1.22-16.07-2.96-23.87Z"/><path class="cls-5" d="M129.82,7.4c-15.73,.45-31,3.76-45.42,9.86-15.02,6.35-28.51,15.45-40.1,27.04-4.1,4.1-7.89,8.44-11.36,13.01,4.1,3.2,8.76,5.47,13.64,6.62,7.85,1.85,16.5,.8,24.36-2.95,7.19-3.43,9.81-7.46,13.13-12.57,3.26-5.01,6.95-10.69,15.41-16.48,6.7-4.58,17.21-9.92,30.34-10.63V7.4Z"/><path class="cls-3" d="M17.26,182.6c6.35,15.02,15.45,28.51,27.04,40.1,1.56,1.56,3.15,3.07,4.78,4.54,1.14-1.95,2.1-3.99,2.86-6.08,2.04-5.61,2.19-10.36,2.26-12.38,.28-8.57,.57-34.48,.26-71.59H7.4c.45,15.73,3.76,31,9.86,45.43Z"/><path class="cls-7" d="M129.82,259.59v-76.84c-.86-2.08-1.28-3.7-1.68-5.19-.53-2.02-.95-3.61-2.48-6.27-2.3-4-5.72-7.62-9.89-10.47-4.39-3-9.4-4.99-14.51-5.75-10.34-1.54-18.67,2.34-21.77,4.08-12.91,7.24-16.68,20.31-17.6,24.67-.07,12.23-.21,20.89-.35,25.2-.08,2.38-.26,7.95-2.7,14.66-1.06,2.92-2.43,5.73-4.1,8.4,9.02,7.22,18.94,13.15,29.65,17.67,14.43,6.1,29.69,9.41,45.43,9.86h0Z"/><path class="cls-4" d="M37.75,78.58c2.3-2.6,4.52-5.1,7.71-7.37-.18-.04-.37-.08-.55-.12-5.81-1.37-11.36-4.04-16.24-7.79-4.45,6.63-8.26,13.68-11.4,21.11-1.51,3.58-2.85,7.21-4.02,10.89,4.52-1.58,8.78-3.65,12.71-6.19,5.81-3.76,8.85-7.2,11.79-10.52h0Z"/></g></g></g></svg>